<svg xmlns="http://www.w3.org/2000/svg" version="1.1"   width="1440" height="560" preserveAspectRatio="none" viewBox="0 0 1440 560"><g mask="url(&quot;#SvgjsMask1589&quot;)" fill="none"><rect width="1440" height="560" x="0" y="0" fill="url(&quot;#SvgjsLinearGradient1590&quot;)"></rect><path d="M13.04 207.22L23.42 207.22L23.42 251.82L13.04 251.82z" fill="rgba(231, 159, 146, 1)"></path><path d="M1068.5 83.39 a31.72 31.72 0 1 0 63.44 0 a31.72 31.72 0 1 0 -63.44 0z" stroke="rgba(231, 159, 146, 1)"></path><path d="M912.68 2.08 a24.85 24.85 0 1 0 49.7 0 a24.85 24.85 0 1 0 -49.7 0z" stroke="#e73635"></path><path d="M554.61 207.1a38.41 38.41 0 1 0-20.64 74z" fill="#e73635"></path><path d="M1115.91 476.15L1153.92 476.15L1153.92 491.71L1115.91 491.71z" fill="rgba(231, 159, 146, 1)"></path><path d="M-29.17 64.69 a31.08 31.08 0 1 0 62.16 0 a31.08 31.08 0 1 0 -62.16 0z" stroke="#e73635"></path><path d="M517.04 541.07L552.92 541.07L552.92 576.95L517.04 576.95z" stroke="#e73635"></path><path d="M800.54 365.42L810.6 365.42L810.6 375.48L800.54 375.48z" fill="#e73635"></path><path d="M51.2 477.7 a7.97 7.97 0 1 0 15.94 0 a7.97 7.97 0 1 0 -15.94 0z" fill="#e73635"></path><path d="M1452.29 6.63a38.73 38.73 0 1 0-67.6 37.83z" stroke="#e73635"></path><path d="M1134.98 403.63L1155.48 403.63L1155.48 437.05L1134.98 437.05z" stroke="rgba(129, 125, 125, 1)"></path><path d="M190.03 335.56 a41.09 41.09 0 1 0 82.18 0 a41.09 41.09 0 1 0 -82.18 0z" fill="rgba(231, 159, 146, 1)"></path><path d="M910.37 29.39L958.28 29.39L958.28 68.97L910.37 68.97z" fill="#e73635"></path><path d="M1118.49 127.09L1163.83 127.09L1163.83 147.43L1118.49 147.43z" stroke="rgba(231, 159, 146, 1)"></path><path d="M92.68 165.97 a43.92 43.92 0 1 0 87.84 0 a43.92 43.92 0 1 0 -87.84 0z" fill="rgba(129, 125, 125, 1)"></path><path d="M203.61 323.22L228.52 323.22L228.52 348.13L203.61 348.13z" stroke="#e73635"></path><path d="M49.81 252.06a46.08 46.08 0 1 0-55.45 73.61z" fill="rgba(231, 159, 146, 1)"></path><path d="M761.64 406.77a19.47 19.47 0 1 0 34.17 18.67z" stroke="rgba(129, 125, 125, 1)"></path><path d="M123.39 335.36a0.9 0.9 0 1 0 0.09 1.8z" stroke="rgba(129, 125, 125, 1)"></path><path d="M239.53 335.82L295.46 335.82L295.46 372.8L239.53 372.8z" fill="rgba(129, 125, 125, 1)"></path><path d="M175 129.89L195.05 129.89L195.05 148.81L175 148.81z" fill="rgba(231, 159, 146, 1)"></path><path d="M996.15 546.22 a21.25 21.25 0 1 0 42.5 0 a21.25 21.25 0 1 0 -42.5 0z" stroke="rgba(129, 125, 125, 1)"></path><path d="M1119.02 227.47L1173.79 227.47L1173.79 282.24L1119.02 282.24z" stroke="#e73635"></path><path d="M1351.42 211.45L1384.89 211.45L1384.89 244.92L1351.42 244.92z" stroke="rgba(129, 125, 125, 1)"></path><path d="M363.14 346.32a5.87 5.87 0 1 0 7.48-9.05z" stroke="rgba(129, 125, 125, 1)"></path><path d="M1325.19 502.14L1357.42 502.14L1357.42 549.48L1325.19 549.48z" fill="rgba(129, 125, 125, 1)"></path><path d="M81.03 518.53a55.97 55.97 0 1 0-85.69 72.03z" fill="rgba(231, 159, 146, 1)"></path><path d="M1297.03 91.49 a14.53 14.53 0 1 0 29.06 0 a14.53 14.53 0 1 0 -29.06 0z" fill="rgba(129, 125, 125, 1)"></path><path d="M816.14 122.49a52.93 52.93 0 1 0 103.71-21.22z" fill="rgba(231, 159, 146, 1)"></path><path d="M949.67 153.83L970.29 153.83L970.29 194.3L949.67 194.3z" fill="rgba(231, 159, 146, 1)"></path><path d="M1222.85 143.78a26.25 26.25 0 1 0-36.91-37.34z" stroke="#e73635"></path><path d="M1387.88 38.29L1425.81 38.29L1425.81 76.22L1387.88 76.22z" fill="rgba(129, 125, 125, 1)"></path><path d="M40.91 120.09L66.88 120.09L66.88 146.06L40.91 146.06z" stroke="rgba(129, 125, 125, 1)"></path></g><defs><mask id="SvgjsMask1589"><rect width="1440" height="560" fill="#ffffff"></rect></mask><linearGradient x1="84.72%" y1="139.29%" x2="15.28%" y2="-39.29%" gradientUnits="userSpaceOnUse" id="SvgjsLinearGradient1590"><stop stop-color="rgba(14, 42, 71, 1)" offset="0.46"></stop><stop stop-color="rgba(158, 0, 31, 1)" offset="1"></stop></linearGradient></defs></svg>