<svg xmlns="http://www.w3.org/2000/svg" version="1.1" xmlns:xlink="http://www.w3.org/1999/xlink"
      width="2000" height="499" viewBox="0 0 2000 499">
    <g transform="matrix(1,0,0,1,-1.2121212121212466,0.44954906747724976)">
        <svg viewBox="0 0 396 99" data-background-color="#ffffff" preserveAspectRatio="xMidYMid meet" height="499"
             width="2000" xmlns="http://www.w3.org/2000/svg" xmlns:xlink="http://www.w3.org/1999/xlink">
            <g id="tight-bounds" transform="matrix(1,0,0,1,0.2400000000000091,-0.08918909354758853)">
                <svg viewBox="0 0 395.52 99.17837818709516" height="99.17837818709516" width="395.52">
                    <g>
                        <svg viewBox="0 0 395.52 99.17837818709516" height="99.17837818709516" width="395.52">
                            <g>
                                <svg viewBox="0 0 544.6862556880917 136.5824723400748" height="99.17837818709516"
                                     width="395.52">
                                    <g transform="matrix(1,0,0,1,0,18.876448782166634)">
                                        <svg viewBox="0 0 395.52 98.82957477574152" height="98.82957477574152"
                                             width="395.52">
                                            <g id="textblocktransform">
                                                <svg viewBox="0 0 395.52 98.82957477574152" height="98.82957477574152"
                                                     width="395.52" id="textblock">
                                                    <g>
                                                        <svg viewBox="0 0 395.52 53.303950202549146"
                                                             height="53.303950202549146" width="395.52">
                                                            <g transform="matrix(1,0,0,1,0,0)">
                                                                <svg width="395.52"
                                                                     viewBox="3.78 -33.48 252.99999999999997 34.11"
                                                                     height="53.303950202549146"
                                                                     data-palette-color="#303030">
                                                                    <path d="M26.68 0L22.4 0 21.5-6.55Q21.25-8.4 20.65-9.76 20.05-11.13 18.81-11.9 17.57-12.68 15.3-12.68L15.3-12.68 6.63-12.7 6.63-15.98 15.9-16Q19.18-16 20.58-17.61 21.98-19.23 21.98-22L21.98-22 21.98-22.75Q21.98-25.5 20.55-27.01 19.13-28.53 15.8-28.53L15.8-28.53 6.5-28.53 6.5-31.95 16.35-31.95Q21.5-31.95 23.84-29.69 26.18-27.43 26.18-23.45L26.18-23.45 26.18-22.6Q26.18-19.48 24.7-17.49 23.23-15.5 19.8-15.08L19.8-15.08 19.8-14.58 18.03-15.2Q20.8-15 22.31-13.99 23.83-12.98 24.53-11.23 25.23-9.47 25.6-7.03L25.6-7.03 26.68 0ZM7.88 0L3.78 0 3.78-31.95 7.85-31.95 7.85-14.88 7.88-13.3 7.88 0ZM42.32 0.55L42.32 0.55Q36.75 0.55 33.92-2.18 31.1-4.9 31.1-9.98L31.1-9.98 31.1-14.33Q31.1-19.48 33.72-22.26 36.35-25.05 41.4-25.05L41.4-25.05Q44.8-25.05 47.07-23.79 49.35-22.53 50.5-20.2 51.65-17.88 51.65-14.65L51.65-14.65 51.65-13.75Q51.65-12.95 51.59-12.15 51.52-11.35 51.42-10.58L51.42-10.58 47.7-10.58Q47.75-11.78 47.76-12.85 47.77-13.93 47.77-14.83L47.77-14.83Q47.77-17.05 47.06-18.59 46.35-20.13 44.94-20.94 43.52-21.75 41.4-21.75L41.4-21.75Q38.25-21.75 36.67-19.93 35.1-18.1 35.1-14.7L35.1-14.7 35.1-12.38 35.12-11.88 35.12-9.55Q35.12-8.03 35.57-6.8 36.02-5.58 36.98-4.69 37.95-3.8 39.44-3.34 40.92-2.88 42.97-2.88L42.97-2.88Q45.35-2.88 47.4-3.5 49.45-4.13 51.25-5.2L51.25-5.2 50.87-1.7Q49.25-0.68 47.1-0.06 44.95 0.55 42.32 0.55ZM50.57-10.58L33.22-10.58 33.22-13.63 50.57-13.63 50.57-10.58ZM66.45 0.55L66.45 0.55Q61.2 0.55 58.63-2.29 56.07-5.13 56.07-10.33L56.07-10.33 56.07-14.13Q56.07-19.35 58.65-22.16 61.22-24.98 66.45-24.98L66.45-24.98Q68-24.98 69.27-24.69 70.55-24.4 71.56-23.94 72.57-23.48 73.27-22.98L73.27-22.98 73.62-19.45Q72.45-20.35 70.83-20.98 69.22-21.6 67.05-21.6L67.05-21.6Q63.55-21.6 61.83-19.66 60.12-17.73 60.12-14.03L60.12-14.03 60.12-10.43Q60.12-6.8 61.83-4.85 63.55-2.9 67.05-2.9L67.05-2.9Q69.3-2.9 70.93-3.53 72.57-4.15 73.84-5.05L73.84-5.05 73.47-1.48Q72.37-0.73 70.59-0.09 68.82 0.55 66.45 0.55ZM82.89 0L78.87 0 78.87-33.13 82.89-33.13 82.89 0ZM108.12 0L104.09 0 104.27-5.93 104.12-6.55 104.12-14.33 104.14-15.75Q104.14-18.73 102.63-20.15 101.12-21.58 97.84-21.58L97.84-21.58Q95.22-21.58 93.03-20.83 90.84-20.08 89.14-19.07L89.14-19.07 89.52-22.53Q90.47-23.1 91.78-23.66 93.09-24.23 94.78-24.6 96.47-24.98 98.49-24.98L98.49-24.98Q101.12-24.98 102.95-24.34 104.79-23.7 105.93-22.5 107.07-21.3 107.59-19.6 108.12-17.9 108.12-15.8L108.12-15.8 108.12 0ZM95.69 0.53L95.69 0.53Q92.07 0.53 90.13-1.24 88.19-3 88.19-6.28L88.19-6.28 88.19-7Q88.19-10.38 90.28-12.04 92.37-13.7 96.92-14.35L96.92-14.35 104.64-15.45 104.87-12.5 97.42-11.43Q94.62-11.03 93.42-10.06 92.22-9.1 92.22-7.23L92.22-7.23 92.22-6.83Q92.22-4.9 93.4-3.88 94.59-2.85 96.97-2.85L96.97-2.85Q99.07-2.85 100.57-3.58 102.07-4.3 102.99-5.53 103.92-6.75 104.24-8.25L104.24-8.25 104.87-5.5 104.09-5.5Q103.74-3.9 102.78-2.53 101.82-1.15 100.09-0.31 98.37 0.53 95.69 0.53ZM148.84 0L144.79 0 144.79-15.28Q144.79-17.2 144.3-18.61 143.81-20.03 142.7-20.8 141.59-21.58 139.71-21.58L139.71-21.58Q137.94-21.58 136.64-20.85 135.34-20.13 134.54-18.91 133.74-17.7 133.41-16.15L133.41-16.15 132.79-19.03 133.29-19.03Q133.69-20.6 134.64-21.95 135.59-23.3 137.21-24.13 138.84-24.95 141.24-24.95L141.24-24.95Q143.96-24.95 145.63-23.88 147.29-22.8 148.06-20.74 148.84-18.68 148.84-15.73L148.84-15.73 148.84 0ZM118.36 0L114.31 0 114.31-24.4 118.36-24.4 118.19-18.55 118.36-18.3 118.36 0ZM133.59 0L129.56 0 129.56-15.28Q129.56-17.2 129.08-18.61 128.59-20.03 127.49-20.8 126.39-21.58 124.51-21.58L124.51-21.58Q122.71-21.58 121.41-20.85 120.11-20.13 119.31-18.89 118.51-17.65 118.19-16.07L118.19-16.07 117.44-18.95 118.34-18.95Q118.71-20.6 119.64-21.96 120.56-23.33 122.15-24.14 123.74-24.95 126.01-24.95L126.01-24.95Q129.39-24.95 131.15-23.2 132.91-21.45 133.36-18.1L133.36-18.1Q133.49-17.6 133.54-17.01 133.59-16.43 133.59-15.85L133.59-15.85 133.59 0ZM173.61 0L169.59 0 169.76-5.93 169.61-6.55 169.61-14.33 169.64-15.75Q169.64-18.73 168.12-20.15 166.61-21.58 163.34-21.58L163.34-21.58Q160.71-21.58 158.52-20.83 156.34-20.08 154.64-19.07L154.64-19.07 155.01-22.53Q155.96-23.1 157.27-23.66 158.59-24.23 160.27-24.6 161.96-24.98 163.99-24.98L163.99-24.98Q166.61-24.98 168.45-24.34 170.29-23.7 171.42-22.5 172.56-21.3 173.09-19.6 173.61-17.9 173.61-15.8L173.61-15.8 173.61 0ZM161.19 0.53L161.19 0.53Q157.56 0.53 155.62-1.24 153.69-3 153.69-6.28L153.69-6.28 153.69-7Q153.69-10.38 155.77-12.04 157.86-13.7 162.41-14.35L162.41-14.35 170.14-15.45 170.36-12.5 162.91-11.43Q160.11-11.03 158.91-10.06 157.71-9.1 157.71-7.23L157.71-7.23 157.71-6.83Q157.71-4.9 158.9-3.88 160.09-2.85 162.46-2.85L162.46-2.85Q164.56-2.85 166.06-3.58 167.56-4.3 168.49-5.53 169.41-6.75 169.74-8.25L169.74-8.25 170.36-5.5 169.59-5.5Q169.24-3.9 168.27-2.53 167.31-1.15 165.59-0.31 163.86 0.53 161.19 0.53ZM188.68 0.5L188.68 0.5Q185.86 0.5 184.13-0.35 182.41-1.2 181.63-2.93 180.86-4.65 180.86-7.23L180.86-7.23 180.86-22.63 184.86-22.63 184.86-7.7Q184.86-5.3 185.96-4.16 187.06-3.03 189.66-3.03L189.66-3.03Q191.13-3.03 192.5-3.35 193.86-3.68 195.06-4.28L195.06-4.28 194.68-0.8Q193.51-0.2 191.93 0.15 190.36 0.5 188.68 0.5ZM194.43-20.8L176.86-20.8 176.86-24.05 194.81-24.05 194.43-20.8ZM184.76-23.65L180.88-23.65 180.86-30.5 184.93-31.03 184.76-23.65ZM203.71 0L199.66 0 199.66-24.4 203.71-24.4 203.71 0ZM201.68-28.4L201.68-28.4Q200.43-28.4 199.82-29.06 199.21-29.73 199.21-30.88L199.21-30.88 199.21-31Q199.21-32.18 199.82-32.83 200.43-33.48 201.68-33.48L201.68-33.48Q202.93-33.48 203.56-32.83 204.18-32.18 204.18-31L204.18-31 204.18-30.88Q204.18-29.7 203.56-29.05 202.93-28.4 201.68-28.4ZM220.1 0.63L220.1 0.63Q214.85 0.63 212.14-2.21 209.43-5.05 209.43-10.38L209.43-10.38 209.43-14.1Q209.43-19.4 212.15-22.23 214.88-25.05 220.1-25.05L220.1-25.05Q225.35-25.05 228.07-22.23 230.78-19.4 230.78-14.1L230.78-14.1 230.78-10.38Q230.78-5.05 228.07-2.21 225.35 0.63 220.1 0.63ZM220.1-2.68L220.1-2.68Q223.35-2.68 225.04-4.6 226.73-6.53 226.73-10.15L226.73-10.15 226.73-14.33Q226.73-17.93 225.04-19.84 223.35-21.75 220.1-21.75L220.1-21.75Q216.88-21.75 215.18-19.84 213.48-17.93 213.48-14.33L213.48-14.33 213.48-10.15Q213.48-6.53 215.18-4.6 216.88-2.68 220.1-2.68ZM256.78 0L252.73 0 252.73-15.18Q252.73-17.15 252.19-18.57 251.65-20 250.44-20.79 249.23-21.58 247.13-21.58L247.13-21.58Q245.2-21.58 243.79-20.85 242.38-20.13 241.5-18.89 240.63-17.65 240.28-16.07L240.28-16.07 239.55-18.95 240.43-18.95Q240.83-20.6 241.83-21.96 242.83-23.33 244.51-24.14 246.2-24.95 248.65-24.95L248.65-24.95Q251.55-24.95 253.34-23.85 255.13-22.75 255.95-20.69 256.78-18.63 256.78-15.63L256.78-15.63 256.78 0ZM240.45 0L236.4 0 236.4-24.4 240.45-24.4 240.28-18.55 240.45-18.32 240.45 0Z"
                                                                          opacity="1" transform="matrix(1,0,0,1,0,0)"
                                                                          fill="#303030" class="wordmark-text-0"
                                                                          data-fill-palette-color="primary"
                                                                          id="text-0"></path>
                                                                </svg>
                                                            </g>
                                                        </svg>
                                                    </g>
                                                    <g transform="matrix(1,0,0,1,246.08184609771433,65.88773355056614)">
                                                        <svg viewBox="0 0 149.43815390228565 32.941841225175374"
                                                             height="32.941841225175374" width="149.43815390228565">
                                                            <g transform="matrix(1,0,0,1,0,0)">
                                                                <svg width="149.43815390228565"
                                                                     viewBox="3.91 -36.25 167.22 36.86"
                                                                     height="32.941841225175374"
                                                                     data-palette-color="#464646">
                                                                    <path d="M8.91-31.62L8.91-20.63 22.83-20.63 22.83-16.72 8.91-16.72 8.91-4.03 15.36-4.03Q18.97-4.03 21.45-4.09 23.93-4.15 25.39-4.39L25.39-4.39 25.39 0 3.91 0Q4.17-1.46 4.22-4.24 4.27-7.01 4.27-10.62L4.27-10.62 4.27-25.02Q4.27-28.64 4.22-31.41 4.17-34.18 3.91-35.64L3.91-35.64 24.66-35.64 24.66-31.62 8.91-31.62ZM52.73-34.06L52.73-34.06 51.76-29.3Q49.14-30.74 47.17-31.36 45.19-31.98 42.84-31.98L42.84-31.98Q40.89-31.98 39.4-31.23 37.91-30.47 37.08-29.27 36.25-28.08 36.25-26.73L36.25-26.73Q36.25-25.39 36.81-24.37 37.38-23.34 39.11-22.44 40.84-21.53 44.31-20.51L44.31-20.51Q49.17-19.09 51.74-16.71 54.32-14.33 54.32-10.38L54.32-10.38Q54.32-7.1 52.66-4.63 51-2.15 48.23-0.77 45.46 0.61 42.11 0.61L42.11 0.61Q38.57 0.61 35.54-0.32 32.52-1.25 30.64-2.69L30.64-2.69 31.74-7.69Q34.15-5.59 36.78-4.63 39.4-3.66 42.11-3.66L42.11-3.66Q44.09-3.66 45.81-4.39 47.53-5.13 48.61-6.52 49.68-7.91 49.68-9.89L49.68-9.89Q49.68-11.18 49.07-12.3 48.46-13.43 46.58-14.5 44.7-15.58 40.89-16.72L40.89-16.72Q37.08-17.87 35.08-19.31 33.08-20.75 32.35-22.52 31.61-24.29 31.61-26.37L31.61-26.37Q31.61-27.93 32.27-29.65 32.93-31.37 34.31-32.87 35.69-34.38 37.88-35.31 40.06-36.25 43.09-36.25L43.09-36.25Q45.92-36.25 48.14-35.73 50.36-35.21 52.73-34.06ZM65.91-13.79L65.91-13.79 65.91-10.62Q65.91-7.01 65.97-4.22 66.04-1.44 66.28 0L66.28 0 60.91 0Q61.18-1.46 61.23-4.24 61.27-7.01 61.27-10.62L61.27-10.62 61.27-24.41Q61.27-28 61.23-31.09 61.18-34.18 60.91-35.64L60.91-35.64Q60.91-35.64 62.42-35.71 63.94-35.77 66.32-35.83 68.7-35.89 71.28-35.89L71.28-35.89Q77.19-35.89 80.71-33.19 84.22-30.49 84.22-25.15L84.22-25.15Q84.22-19.78 80.77-16.66 77.31-13.55 71.28-13.55L71.28-13.55Q69.94-13.55 68.53-13.61 67.11-13.67 65.91-13.79ZM65.91-31.86L65.91-31.86 65.91-17.58Q67.06-17.43 68.31-17.38 69.55-17.33 70.92-17.33L70.92-17.33Q74.34-17.33 76.22-18.35 78.1-19.36 78.84-21.03 79.58-22.71 79.58-24.66L79.58-24.66Q79.58-26.61 78.8-28.28 78.02-29.96 76.15-30.97 74.29-31.98 71.04-31.98L71.04-31.98Q69.33-31.98 68.24-31.95 67.16-31.91 65.91-31.86ZM101.31-15.26L95.09-15.26 95.09-10.62Q95.09-7.01 95.15-4.22 95.21-1.44 95.45 0L95.45 0 90.08 0Q90.35-1.46 90.4-4.24 90.45-7.01 90.45-10.62L90.45-10.62 90.45-24.41Q90.45-28 90.4-31.09 90.35-34.18 90.08-35.64L90.08-35.64Q90.08-35.64 92.89-35.77 95.7-35.89 99.97-35.89L99.97-35.89Q103.78-35.89 106.66-34.85 109.54-33.81 111.16-31.62 112.79-29.42 112.79-25.88L112.79-25.88Q112.79-22.97 111.65-20.95 110.51-18.92 108.74-17.66 106.97-16.41 104.99-15.83 103-15.26 101.31-15.26L101.31-15.26ZM95.09-31.86L95.09-31.86 95.09-19.04 99.72-19.04Q103.85-19.04 106-20.76 108.15-22.49 108.15-25.51L108.15-25.51Q108.15-28.64 106.18-30.31 104.22-31.98 99.72-31.98L99.72-31.98Q98.45-31.98 97.26-31.95 96.06-31.91 95.09-31.86ZM110.34 0L99.87-15.5 103.63-17.33Q103.63-17.33 104.46-16.2 105.29-15.06 106.62-13.24 107.95-11.43 109.49-9.34 111.03-7.25 112.49-5.27 113.96-3.3 115.06-1.87 116.15-0.44 116.57 0L116.57 0 110.34 0ZM121.45-32.1L121.45-35.64 137.93-35.64 137.93-32.1 131.95-32.1 131.95-3.54 137.93-3.54 137.93 0 121.45 0 121.45-3.54 127.31-3.54 127.31-32.1 121.45-32.1ZM142.93-31.13L142.93-35.64 171.13-35.64 171.13-31.13Q169.67-31.45 168.24-31.53 166.81-31.62 165.15-31.62L165.15-31.62 159.29-31.62 159.29-10.62Q159.29-7.01 159.37-4.24 159.46-1.46 159.78 0L159.78 0 154.16 0Q154.48-1.46 154.57-4.24 154.65-7.01 154.65-10.62L154.65-10.62 154.65-31.62 148.91-31.62Q147.28-31.62 145.84-31.53 144.4-31.45 142.93-31.13L142.93-31.13Z"
                                                                          opacity="1" transform="matrix(1,0,0,1,0,0)"
                                                                          fill="#464646" class="slogan-text-1"
                                                                          data-fill-palette-color="secondary"
                                                                          id="text-1"></path>
                                                                </svg>
                                                            </g>
                                                        </svg>
                                                    </g>
                                                </svg>
                                            </g>
                                        </svg>
                                    </g>
                                    <g transform="matrix(1,0,0,1,408.103783348017,0)">
                                        <svg viewBox="0 0 136.5824723400748 136.5824723400748"
                                             height="136.5824723400748" width="136.5824723400748">
                                            <g data-palette-color="#b31414">
                                                <rect width="37.33254243962045" height="136.5824723400748"
                                                      fill="#b31414" stroke="transparent"
                                                      data-fill-palette-color="accent" x="0" fill-opacity="1"></rect>
                                                <rect width="37.33254243962045" height="136.5824723400748"
                                                      fill="#b31414" stroke="transparent"
                                                      data-fill-palette-color="accent" x="45.527490780024934"
                                                      fill-opacity="0.75"></rect>
                                                <rect width="37.33254243962045" height="136.5824723400748"
                                                      fill="#b31414" stroke="transparent"
                                                      data-fill-palette-color="accent" x="91.05498156004987"
                                                      fill-opacity="0.5"></rect>
                                            </g>
                                        </svg>
                                    </g>
                                </svg>
                            </g>
                        </svg>
                    </g>
                    <defs></defs>
                </svg>
                <rect width="395.52" height="99.17837818709516" fill="none" stroke="none" visibility="hidden"></rect>
            </g>
        </svg>
    </g>
</svg>
