<svg xmlns="http://www.w3.org/2000/svg" version="1.1" xmlns:xlink="http://www.w3.org/1999/xlink"
      width="2000" height="1247" viewBox="0 0 2000 1247">
    <g transform="matrix(1,0,0,1,-1.2121212121212466,0.504858299595071)">
        <svg viewBox="0 0 396 247" data-background-color="#ffffff" preserveAspectRatio="xMidYMid meet" height="1247"
             width="2000" xmlns="http://www.w3.org/2000/svg" xmlns:xlink="http://www.w3.org/1999/xlink">
            <g id="tight-bounds" transform="matrix(1,0,0,1,0.2400000000000091,-0.09999999999999432)">
                <svg viewBox="0 0 395.52 247.2" height="247.2" width="395.52">
                    <g>
                        <svg></svg>
                    </g>
                    <g>
                        <svg viewBox="0 0 395.52 247.2" height="247.2" width="395.52">
                            <g transform="matrix(1,0,0,1,75.54432,79.78313030603351)">
                                <svg viewBox="0 0 244.43135999999998 87.63373938793298" height="87.63373938793298"
                                     width="244.43135999999998">
                                    <g>
                                        <svg viewBox="0 0 421.33833982531326 151.05858048" height="87.63373938793298"
                                             width="244.43135999999998">
                                            <g transform="matrix(1,0,0,1,0,20.783362349589034)">
                                                <svg viewBox="0 0 244.43135999999998 109.49185578082192"
                                                     height="109.49185578082192" width="244.43135999999998">
                                                    <g id="textblocktransform">
                                                        <svg viewBox="0 0 244.43135999999998 109.49185578082192"
                                                             height="109.49185578082192" width="244.43135999999998"
                                                             id="textblock">
                                                            <g>
                                                                <svg viewBox="0 0 244.43135999999998 109.49185578082192"
                                                                     height="109.49185578082192"
                                                                     width="244.43135999999998">
                                                                    <g transform="matrix(1,0,0,1,0,0)">
                                                                        <svg width="244.43135999999998"
                                                                             viewBox="1.75 -32.1 73 32.7"
                                                                             height="109.49185578082192"
                                                                             data-palette-color="#161616">
                                                                            <path d="M18.3 0L1.75 0 1.75-0.9 4.1-0.9Q4.8-0.9 4.8-1.6L4.8-1.6 4.8-30Q4.8-30.6 4.1-30.6L4.1-30.6 1.75-30.6 1.75-31.5 17.6-31.5Q21.55-31.5 23.15-31.95L23.15-31.95Q22.7-29.9 22.7-26.25L22.7-26.25 22.7-23.9 21.55-23.9 20.8-29Q20.7-30.1 19.4-30.1L19.4-30.1 8.9-30.1 8.9-16.45 18.95-16.45Q19.55-16.45 19.65-17.15L19.65-17.15 19.9-20.25 20.8-20.25 20.8-11.25 19.9-11.25 19.65-14.35Q19.55-15.05 18.95-15.05L18.95-15.05 8.9-15.05 8.9-1.4 20.1-1.4Q21.4-1.4 21.5-2.5L21.5-2.5 22.25-8.35 23.4-8.35 23.4-6Q23.4-1.6 23.85 0.45L23.85 0.45Q22.25 0 18.3 0L18.3 0ZM38.25 0.6L38.25 0.6Q34.95 0.6 31.65-1.2L31.65-1.2Q30.55-1.75 30.15-1.75L30.15-1.75Q29.4-1.75 29.35-0.7L29.35-0.7 29.3 0 28.35 0 28.35-8.35 29.25-8.35Q29.7-4.5 32.12-2.68 34.55-0.85 37.87-0.85 41.2-0.85 42.92-2.65 44.65-4.45 44.65-6.9L44.65-6.9Q44.65-10.8 40.15-12.8L40.15-12.8 34.2-15.45Q31.5-16.65 30.15-18.73 28.8-20.8 28.8-23.2L28.8-23.2Q28.8-26.85 31.25-29.48 33.7-32.1 38.3-32.1L38.3-32.1Q41-32.1 43.85-30.3L43.85-30.3Q44.8-29.75 45.15-29.75L45.15-29.75Q45.8-29.75 45.85-30.8L45.85-30.8 45.9-31.8 46.85-31.8 46.85-23.15 45.95-23.15Q45.55-27 43.47-28.83 41.4-30.65 38.42-30.65 35.45-30.65 33.82-29.03 32.2-27.4 32.2-25.33 32.2-23.25 33.32-21.6 34.45-19.95 36.65-19L36.65-19 42.65-16.35Q45.65-15 47.17-12.83 48.7-10.65 48.7-8.15L48.7-8.15Q48.7-4.6 45.85-2 43 0.6 38.25 0.6ZM54.8-30.6L52.45-30.6 52.45-31.5 64.65-31.5Q68.9-31.5 71.82-28.93 74.75-26.35 74.75-22 74.75-17.65 71.82-15.08 68.9-12.5 64.65-12.5L64.65-12.5 59.6-12.5 59.6-1.6Q59.6-0.9 60.3-0.9L60.3-0.9 63.65-0.9 63.65 0 52.45 0 52.45-0.9 54.8-0.9Q55.5-0.9 55.5-1.6L55.5-1.6 55.5-30Q55.5-30.6 54.8-30.6L54.8-30.6ZM64.4-30.1L64.4-30.1 59.6-30.1 59.6-13.9 64.4-13.9Q67.35-13.9 69.05-16.32 70.75-18.75 70.75-22 70.75-25.25 69.05-27.68 67.35-30.1 64.4-30.1Z"
                                                                                  opacity="1"
                                                                                  transform="matrix(1,0,0,1,0,0)"
                                                                                  fill="#161616" class="wordmark-text-0"
                                                                                  data-fill-palette-color="primary"
                                                                                  id="text-0"></path>
                                                                        </svg>
                                                                    </g>
                                                                </svg>
                                                            </g>
                                                        </svg>
                                                    </g>
                                                </svg>
                                            </g>
                                            <g transform="matrix(1,0,0,1,270.2797593453133,0)">
                                                <svg viewBox="0 0 151.05858048 151.05858048" height="151.05858048"
                                                     width="151.05858048">
                                                    <g data-palette-color="#e93c3c">
                                                        <rect width="41.289345331199996" height="151.05858048"
                                                              fill="#e93c3c" stroke="transparent"
                                                              data-fill-palette-color="accent" x="0"
                                                              fill-opacity="1"></rect>
                                                        <rect width="41.289345331199996" height="151.05858048"
                                                              fill="#e93c3c" stroke="transparent"
                                                              data-fill-palette-color="accent" x="50.35286015999999"
                                                              fill-opacity="0.75"></rect>
                                                        <rect width="41.289345331199996" height="151.05858048"
                                                              fill="#e93c3c" stroke="transparent"
                                                              data-fill-palette-color="accent" x="100.70572031999998"
                                                              fill-opacity="0.5"></rect>
                                                    </g>
                                                </svg>
                                            </g>
                                        </svg>
                                    </g>
                                </svg>
                            </g>
                            <g>
                                <path d="M245.816 0c68.262 0 123.6 55.338 123.6 123.6 0 68.262-55.338 123.6-123.6 123.6-49.955 0-92.989-29.636-112.478-72.285h3.158c19.289 41.022 60.988 69.421 109.32 69.421 66.681 0 120.736-54.055 120.736-120.736 0-66.681-54.055-120.736-120.736-120.736-48.332 0-90.031 28.399-109.32 69.421l-3.158 0c19.489-42.649 62.522-72.285 112.478-72.285z"
                                      fill="#7a7a7c" stroke="transparent" data-fill-palette-color="tertiary"></path>
                            </g>
                        </svg>
                    </g>
                    <defs></defs>
                </svg>
                <rect width="395.52" height="247.2" fill="none" stroke="none" visibility="hidden"></rect>
            </g>
        </svg>
    </g>
</svg>
